# xmcd
#
# Track frame offsets: 
#        150
#        14246
#        35065
#        48568
#        72230
#        89043
#        105014
#        118850
#        140257
#        157047
#        171345
#        183700
#
# Disc length: 2634 seconds
#
# Revision: 0
# Processed by: cddbd v1.5.2PL0 Copyright (c) Steve Scherf et al.
# Submitted via: ExactAudioCopy v1.0b3
#
DISCID=b10a480c
DTITLE=Lydia Gray - In My Eyes
DYEAR=2007
DGENRE=Country
TTITLE0=Maybe I'm Amazed
TTITLE1=In Your Eyes
TTITLE2=Something
TTITLE3=Look Of Love
TTITLE4=Red Rain
TTITLE5=I'll Be Back
TTITLE6=Better Be Home Soon
TTITLE7=I Don't Know Why
TTITLE8=Sorry Seems To Be The Hardest Word
TTITLE9=And I Love Him
TTITLE10=For No One
TTITLE11=What I'll Do
EXTD=
EXTT0=
EXTT1=
EXTT2=
EXTT3=
EXTT4=
EXTT5=
EXTT6=
EXTT7=
EXTT8=
EXTT9=
EXTT10=
EXTT11=
PLAYORDER=
